PathFileType	4	(X/Y/Z)	s08c0303.trc
DataRate	CameraRate	NumFrames	NumMarkers	Units	OrigDataRate	OrigDataStartFrame	OrigNumFrames
200	200	4	50	mm	200	250	2000
Frame#	Time	racr			lacr			c7			jug			rlel			rdr			llel			ldr			s2			lic			ric			lasi			rasi			rpsi			lpsi			rgt			lgt			rth1			rth2			rth3			rth4			rlfc			rmfc			rsh1			rsh2			rsh3			rsh4			rlmal			rmmal			rcal			rtoe			rmt5			lth1			lth2			lth4			lth3			llfc			lmfc			llmal			lmmal			lcal			lmt5			lsh1			lsh2			lsh3			lsh4			ltoe			SBIKE			LBIKE			RBIKE			
		X1	Y1	Z1	X2	Y2	Z2	X3	Y3	Z3	X4	Y4	Z4	X5	Y5	Z5	X6	Y6	Z6	X7	Y7	Z7	X8	Y8	Z8	X9	Y9	Z9	X10	Y10	Z10	X11	Y11	Z11	X12	Y12	Z12	X13	Y13	Z13	X14	Y14	Z14	X15	Y15	Z15	X16	Y16	Z16	X17	Y17	Z17	X18	Y18	Z18	X19	Y19	Z19	X20	Y20	Z20	X21	Y21	Z21	X22	Y22	Z22	X23	Y23	Z23	X24	Y24	Z24	X25	Y25	Z25	X26	Y26	Z26	X27	Y27	Z27	X28	Y28	Z28	X29	Y29	Z29	X30	Y30	Z30	X31	Y31	Z31	X32	Y32	Z32	X33	Y33	Z33	X34	Y34	Z34	X35	Y35	Z35	X36	Y36	Z36	X37	Y37	Z37	X38	Y38	Z38	X39	Y39	Z39	X40	Y40	Z40	X41	Y41	Z41	X42	Y42	Z42	X43	Y43	Z43	X44	Y44	Z44	X45	Y45	Z45	X46	Y46	Z46	X47	Y47	Z47	X48	Y48	Z48	X49	Y49	Z49	X50	Y50	Z50	
250	1.2500	484.719619	1345.622100	-61.579211	504.177329	1358.416176	-431.957411	472.912454	1420.200618	-244.530924	453.768349	1265.682930	-235.366772	574.812044	1112.881470	1.151028	781.598833	887.888299	-69.027444	603.889749	1124.068070	-463.820339	783.038098	885.128496	-414.598693	-86.601983	1206.806369	-250.310848	89.196381	1160.850907	-389.083771	78.562590	1203.365291	-84.968471	99.679497	1106.003163	-356.898100	84.919101	1150.984283	-115.389471	-49.735486	1247.614185	-201.662969	-43.812304	1240.519663	-296.986773	-15.726767	1121.749002	-35.771501	-1.941345	1058.485614	-423.290356	128.914448	1037.390679	-34.416971	216.483788	1023.008420	-34.461316	283.414608	966.569709	-36.291237	231.322779	1054.745308	-47.449208	385.897141	900.553712	-56.141955	371.106303	890.157306	-167.863385	324.822172	785.068406	-29.320911	320.760054	696.688547	-49.721029	273.787224	624.709741	-56.079306	347.471844	693.638988	-80.534742	229.488180	515.372550	-68.452218	244.395486	540.224449	-155.830342	151.881758	476.098244	-112.264496	449.794923	506.792910	-109.159877	364.811568	463.882890	-42.564166	48.775760	931.666917	-435.909898	104.941602	864.648635	-432.864660	137.166145	879.612856	-423.942599	119.596788	777.073595	-430.700712	161.773966	658.081389	-406.189336	156.828401	634.051250	-299.778028	26.710957	260.543457	-398.536171	52.734881	280.094761	-313.515474	-42.306772	232.779658	-359.117058	164.709781	178.294015	-420.031201	119.148625	535.081734	-428.568097	112.184835	452.198907	-409.818485	66.817197	376.289023	-411.504110	131.288503	450.218899	-374.908651	245.883078	209.605114	-351.161159	-207.068300	914.826911	-232.227992	-10.048276	79.732676	-427.733549	-10.624958	79.704345	-29.484636	
251	1.2550	484.728999	1345.609451	-61.528779	504.150505	1358.430126	-431.923358	472.881993	1420.225179	-244.498003	453.764231	1265.696185	-235.313171	574.799258	1112.883007	1.204594	781.584288	887.891370	-69.040074	603.860484	1124.051639	-463.844314	783.040471	885.136884	-414.580526	-86.626019	1206.796558	-250.301553	89.176242	1160.839259	-389.105095	78.550541	1203.337739	-84.949111	99.673814	1105.957620	-356.884386	84.917295	1150.958805	-115.385284	-49.767659	1247.621009	-201.664379	-43.823887	1240.509415	-296.971113	-15.693562	1121.537388	-35.824412	-1.960972	1058.485549	-423.283488	128.901041	1037.338915	-34.432757	216.470871	1022.968779	-34.457451	283.373381	966.547148	-36.281060	231.288948	1054.768490	-47.420726	385.873254	900.524427	-56.140532	371.071743	890.136143	-167.831514	324.771854	785.071485	-29.325005	320.711569	696.712377	-49.710413	273.714216	624.719629	-56.056908	347.406504	693.648624	-80.520700	229.387701	515.353348	-68.471717	244.293629	540.232989	-155.853302	151.796409	476.088880	-112.282622	449.704883	506.853504	-109.157777	364.723893	463.917102	-42.578879	48.762973	931.662198	-435.889881	104.908613	864.633306	-432.865762	137.139893	879.589814	-423.931503	119.542125	777.066847	-430.727262	161.710192	658.054823	-406.161403	156.763959	634.030227	-299.773789	26.763396	260.487826	-398.547094	52.820252	280.010252	-313.516145	-42.227780	232.705803	-359.143441	164.796920	178.236189	-420.028712	119.127632	535.057271	-428.551652	112.178430	452.176211	-409.836052	66.851367	376.253515	-411.520942	131.293150	450.185150	-374.911945	245.951619	209.570457	-351.156118	-207.090620	914.784881	-232.307317	-10.065437	79.751742	-427.755968	-10.620535	79.734548	-29.482907	
252	1.2600	484.732301	1345.607256	-61.498556	504.156738	1358.426223	-431.892999	472.865678	1420.238823	-244.486491	453.730550	1265.700757	-235.321374	574.806405	1112.873731	1.234709	781.598832	887.888360	-69.027506	603.824440	1124.024052	-463.859122	783.040926	885.145429	-414.595523	-86.650679	1206.797789	-250.270385	89.181384	1160.821841	-389.085484	78.545526	1203.295556	-84.912760	99.677293	1105.945224	-356.892639	84.919676	1150.944880	-115.386375	-49.772517	1247.631967	-201.637963	-43.855895	1240.519634	-296.945511	-15.723868	1121.529891	-35.830627	-1.961506	1058.511905	-423.284829	128.860939	1037.320840	-34.403877	216.467777	1022.939164	-34.459101	283.367154	966.537341	-36.286082	231.283018	1054.680596	-47.436108	385.853732	900.522364	-56.138966	371.047302	890.138957	-167.845667	324.749574	785.063060	-29.325312	320.730199	696.920688	-49.972220	273.651227	624.731470	-56.071815	347.352623	693.621772	-80.542749	229.302729	515.371358	-68.478583	244.199394	540.284892	-155.865509	151.726259	476.087977	-112.288476	449.620399	506.920975	-109.150748	364.631817	463.990115	-42.565793	48.723248	931.661763	-435.875833	104.868121	864.624629	-432.881978	137.097171	879.570229	-423.945571	119.494460	777.059589	-430.726689	161.633248	658.056684	-406.172716	156.696741	634.025495	-299.732982	26.821313	260.433631	-398.557788	52.861902	279.985814	-313.504121	-42.174078	232.655745	-359.133421	164.851858	178.185513	-420.034503	119.101352	535.044695	-428.566888	112.179604	452.142511	-409.833373	66.860391	376.187870	-411.498794	131.297289	450.180785	-374.923350	246.023017	209.532475	-351.160224	-207.113957	914.835185	-232.320902	-10.058123	79.735256	-427.741779	-10.627823	79.758663	-29.442908	
253	1.2650	484.723524	1345.587247	-61.467395	504.186528	1358.447744	-431.843768	472.836706	1420.266672	-244.454507	453.781318	1265.697113	-235.289237	574.807020	1112.865511	1.274458	781.583938	887.892062	-69.037544	603.780729	1123.980260	-463.870270	783.036214	885.163454	-414.578183	-86.652454	1206.795126	-250.267560	89.170539	1160.807973	-389.094489	78.531718	1203.257939	-84.900182	99.651729	1105.907024	-356.816875	84.893876	1150.888165	-115.335722	-49.784251	1247.630289	-201.619228	-43.855143	1240.514447	-296.922951	-15.737551	1121.512389	-35.806402	-1.974503	1058.519794	-423.260488	128.868871	1037.305846	-34.416348	216.441002	1022.931883	-34.438859	283.093459	966.650987	-36.129341	231.271663	1054.684007	-47.422060	385.842576	900.517620	-56.136953	371.032144	890.123373	-167.878039	324.725488	785.082192	-29.321904	320.692702	696.932290	-49.941694	273.593201	624.752835	-56.078877	347.316622	693.629976	-80.517129	229.206536	515.398409	-68.469608	244.140715	540.290044	-155.854898	151.657989	476.086451	-112.303508	449.537429	507.003830	-109.135827	364.571628	464.027821	-42.567588	48.710600	931.675306	-435.884196	104.840632	864.610800	-432.856392	137.078079	879.560377	-423.941220	119.423590	777.053409	-430.713559	161.534359	657.993894	-406.111092	156.668721	634.011089	-299.755577	26.877368	260.372504	-398.542900	52.971638	279.882133	-313.528196	-42.131423	232.611715	-359.151305	164.923313	178.086759	-420.011989	119.078853	535.005767	-428.565421	112.177187	452.104724	-409.834087	66.896155	376.111890	-411.531328	131.284120	450.148413	-374.903806	246.080071	209.493047	-351.137737	-207.111609	914.833237	-232.357646	-10.053552	79.733021	-427.731474	-10.622265	79.767614	-29.458600	
